<svg xmlns="http://www.w3.org/2000/svg" xmlns:xlink="http://www.w3.org/1999/xlink" viewBox="0 0 143.03 179.79"><defs><style>.cls-1,.cls-2,.cls-7{fill:none;}.cls-2{stroke:#333;}.cls-2,.cls-7{stroke-miterlimit:10;}.cls-3{fill:#f7931e;}.cls-4{isolation:isolate;}.cls-5{clip-path:url(#clip-path);}.cls-6{fill:#b3b3b3;}.cls-7{stroke:#f7931e;stroke-width:10px;}</style><clipPath id="clip-path"><rect class="cls-1" x="2.18" y="72.6" width="138.67" height="40.78"/></clipPath></defs><g id="Layer_2" data-name="Layer 2"><g id="Layer_1-2" data-name="Layer 1"><line class="cls-2" x1="95.64" y1="63.29" x2="95.27" y2="63.29"/><path class="cls-3" d="M7.91,10.88H25.85a5.7,5.7,0,0,1,5.7,5.7V48.2A5.81,5.81,0,0,1,25.73,54h-20A5.72,5.72,0,0,1,0,48.28V18.79A7.91,7.91,0,0,1,7.91,10.88Z"/><path class="cls-3" d="M45.41,0H62.5a6.11,6.11,0,0,1,6.11,6.11V47.9A6.11,6.11,0,0,1,62.5,54H43.25a6.07,6.07,0,0,1-6.07-6.07V8.23A8.23,8.23,0,0,1,45.41,0Z"/><path class="cls-3" d="M116.66,10.88h19A7.39,7.39,0,0,1,143,18.27v30.4A5.32,5.32,0,0,1,137.72,54H116.44a5.26,5.26,0,0,1-5.26-5.26V16.36a5.48,5.48,0,0,1,5.48-5.48Z"/><path class="cls-3" d="M79.65,0H97.9a7.64,7.64,0,0,1,7.64,7.64v40.9A5.46,5.46,0,0,1,100.09,54H79.74a5.49,5.49,0,0,1-5.49-5.49V5.4A5.4,5.4,0,0,1,79.65,0Z"/><g class="cls-4"><g class="cls-5"><path class="cls-6" d="M125.18,106.6c4.55,0,8.24-3.24,8.24-7.21v-13c0-3.89-3.6-7-8-7H93.32A7.84,7.84,0,0,0,86,83.76a6,6,0,0,0-.51,2.41V99.61c0,3.86,3.57,7,8,7h31.67m-76,0c4.57,0,8.26-3.24,8.26-7.21v-13c0-3.89-3.6-7-8-7H17.29A7.85,7.85,0,0,0,10,83.76a6.33,6.33,0,0,0-.5,2.41V99.61c0,3.86,3.56,7,8,7H49.15M7.71,72.6H59a5.71,5.71,0,0,1,5.73,5.72v.85H78.1V78.09a5.48,5.48,0,0,1,5.49-5.49h51.59a5.66,5.66,0,0,1,5.67,5.67v29.27a5.83,5.83,0,0,1-5.82,5.83H83.73a5.63,5.63,0,0,1-5.63-5.64V88.08H64.74V107.8a5.57,5.57,0,0,1-5.57,5.57H7.82a5.63,5.63,0,0,1-5.64-5.64V78.12A5.52,5.52,0,0,1,7.71,72.6"/></g></g><path class="cls-1" d="M57.51,86.17V99.61c0,3.86-3.57,7-8,7H17.86c-4.56,0-8.25-3.24-8.25-7.21v-13c0-3.89,3.6-7,8-7H49.72A7.83,7.83,0,0,1,57,83.76,6,6,0,0,1,57.51,86.17Z"/><path class="cls-1" d="M133.53,86.17V99.61c0,3.86-3.57,7-8,7H93.88c-4.56,0-8.26-3.24-8.26-7.21v-13c0-3.89,3.6-7,8-7h32.09a7.84,7.84,0,0,1,7.28,4.4A6.16,6.16,0,0,1,133.53,86.17Z"/><path class="cls-7" d="M133.72,132v26.89c0,8.81-8.41,15.95-18.8,15.95H28.59c-10.37,0-18.78-7.13-18.78-15.93V132"/></g></g></svg>