<svg id="Capa_1" enable-background="new 0 0 512 512" height="512" viewBox="0 0 512 512" width="512" xmlns="http://www.w3.org/2000/svg"><g><g><path d="m424.951 263.5h22.418c3.401 14.456 16.398 25.254 31.877 25.254 18.061 0 32.754-14.693 32.754-32.754s-14.693-32.754-32.754-32.754c-15.479 0-28.476 10.797-31.877 25.254h-22.418c-1.798-40.987-18.247-78.231-44.234-106.61l37.931-37.931c9.794 7.551 22.05 12.057 35.344 12.057 31.985 0 58.008-26.022 58.008-58.008s-26.022-58.008-58.008-58.008-58.009 26.022-58.009 58.008c0 13.295 4.506 25.55 12.057 35.344l-37.931 37.931c-28.379-25.987-65.622-42.436-106.609-44.234v-22.417c14.456-3.401 25.254-16.398 25.254-31.878 0-18.061-14.693-32.754-32.754-32.754s-32.754 14.693-32.754 32.754c0 15.48 10.797 28.477 25.254 31.878v22.411c-15.779.689-31.282 3.547-46.186 8.532-3.929 1.314-6.048 5.564-4.733 9.492s5.564 6.045 9.491 4.733c15.723-5.26 32.184-7.926 48.928-7.926 84.985 0 154.126 69.141 154.126 154.126s-69.141 154.126-154.126 154.126-154.126-69.141-154.126-154.126c0-54.545 27.929-103.936 74.71-132.119 3.548-2.138 4.691-6.747 2.554-10.294-2.137-3.548-6.747-4.692-10.294-2.554-9.668 5.825-18.704 12.616-26.995 20.208l-37.889-37.889c7.551-9.794 12.057-22.049 12.057-35.344 0-31.986-26.023-58.008-58.009-58.008s-58.008 26.022-58.008 58.008 26.022 58.008 58.008 58.008c13.295 0 25.551-4.506 35.344-12.057l37.883 37.882c-8.296 9.06-15.622 19.014-21.79 29.692-13.521 23.411-21.184 49.876-22.385 76.966h-22.429c-3.401-14.456-16.398-25.254-31.877-25.254-18.061.001-32.754 14.694-32.754 32.755s14.693 32.754 32.754 32.754c15.479 0 28.476-10.797 31.877-25.254h22.418c1.798 40.987 18.247 78.231 44.234 106.61l-37.931 37.931c-9.794-7.551-22.05-12.057-35.344-12.057-31.986 0-58.008 26.022-58.008 58.008s26.022 58.008 58.008 58.008 58.009-26.022 58.009-58.008c0-13.295-4.506-25.55-12.057-35.344l37.931-37.931c28.379 25.987 65.623 42.436 106.609 44.234v22.417c-14.456 3.401-25.254 16.398-25.254 31.878 0 18.061 14.693 32.754 32.754 32.754s32.754-14.693 32.754-32.754c0-15.48-10.797-28.477-25.254-31.878v-22.417c40.987-1.798 78.23-18.247 106.609-44.234l37.931 37.931c-7.551 9.794-12.057 22.049-12.057 35.344 0 31.986 26.022 58.008 58.009 58.008 31.986 0 58.008-26.022 58.008-58.008s-26.022-58.008-58.008-58.008c-13.295 0-25.551 4.506-35.344 12.057l-37.931-37.931c25.987-28.379 42.436-65.623 44.234-106.61zm29.041-248.5c23.715 0 43.008 19.293 43.008 43.008 0 23.714-19.293 43.008-43.008 43.008s-43.009-19.293-43.009-43.008 19.294-43.008 43.009-43.008zm-215.746 17.754c0-9.79 7.965-17.754 17.754-17.754s17.754 7.964 17.754 17.754-7.965 17.754-17.754 17.754-17.754-7.964-17.754-17.754zm241 205.492c9.789 0 17.754 7.964 17.754 17.754s-7.965 17.754-17.754 17.754-17.754-7.964-17.754-17.754 7.965-17.754 17.754-17.754zm-464.246-180.238c0-23.715 19.293-43.008 43.008-43.008s43.009 19.293 43.009 43.008c0 23.714-19.294 43.008-43.009 43.008s-43.008-19.293-43.008-43.008zm17.754 215.746c-9.789 0-17.754-7.964-17.754-17.754s7.965-17.754 17.754-17.754 17.754 7.964 17.754 17.754-7.965 17.754-17.754 17.754zm25.254 223.246c-23.715 0-43.008-19.293-43.008-43.008 0-23.714 19.293-43.008 43.008-43.008s43.009 19.293 43.009 43.008-19.294 43.008-43.009 43.008zm215.746-17.754c0 9.79-7.965 17.754-17.754 17.754s-17.754-7.964-17.754-17.754 7.965-17.754 17.754-17.754 17.754 7.964 17.754 17.754zm223.246-25.254c0 23.715-19.293 43.008-43.008 43.008s-43.009-19.293-43.009-43.008c0-23.714 19.294-43.008 43.009-43.008s43.008 19.293 43.008 43.008z"/><path d="m356.101 252.369c2.13-4.192 2.5-8.962 1.041-13.432l-15.668-48.016c-3.01-9.227-12.965-14.288-22.192-11.274l-8.236 2.687-10.208-31.283c-.748-2.292-2.552-4.084-4.849-4.818-2.294-.734-4.806-.318-6.743 1.116l-101.728 75.291-37.256 12.156c-1.892.617-3.46 1.96-4.36 3.733-.901 1.773-1.061 3.832-.443 5.723l21.935 67.224c.617 1.891 1.96 3.459 3.733 4.36 1.063.54 2.227.813 3.396.813.783 0 1.568-.123 2.326-.37l13.167-4.297 25.467 48.853c1.321 2.534 3.919 4.035 6.65 4.034.773 0 1.558-.12 2.326-.371l28.81-9.4c2.097-.684 3.785-2.255 4.618-4.296s.726-4.346-.294-6.3l-20.975-40.235 43.658.277h.049c4.119 0 7.473-3.327 7.499-7.452.026-4.142-3.311-7.521-7.452-7.548l-61.983-.394-18.58-56.945 89.997-66.609 9.304 28.513c.001.002.001.005.002.007s.002.004.003.007l21.929 67.207c.001.004.002.007.003.011.001.002.002.004.003.006l9.304 28.514-14.894-.095c-4.12-.066-7.521 3.31-7.548 7.453-.026 4.142 3.311 7.521 7.452 7.547l25.299.161h.048c2.393 0 4.644-1.142 6.057-3.076 1.422-1.947 1.821-4.458 1.073-6.75l-10.208-31.283 8.235-2.687c4.469-1.459 8.103-4.57 10.233-8.762zm-115.901 91.216-14.353 4.683-21.375-41.002 9.631-3.143 5.543.035zm-36.721-51.773-24.153 7.881-17.281-52.963 24.153-7.881zm139.249-46.237c-.183.359-.621 1.005-1.513 1.296l-8.235 2.687-17.281-52.964 8.235-2.687c.893-.291 1.627-.028 1.985.154.358.183 1.004.622 1.295 1.513l15.668 48.016c.291.891.028 1.626-.154 1.985z"/></g></g></svg>